<svg xmlns="http://www.w3.org/2000/svg" viewBox="0 0 180 180" role="img" aria-label="Group Planner">
  <rect width="180" height="180" rx="42" fill="#f7f4ee"/>
  <path d="M33 54c0-13 10-22 23-22h72c13 0 23 9 23 23v88c0 13-10 21-23 21H56c-13 0-23-9-23-22V54Z" fill="#fff" stroke="#1a1a1a" stroke-width="9" stroke-linejoin="round"/>
  <path d="M35 72c26-2.4 90-2.2 116 0" fill="none" stroke="#1a1a1a" stroke-width="7" stroke-linecap="round"/>
  <path d="M62 24v31M121 24v31" fill="none" stroke="#16a34a" stroke-width="12" stroke-linecap="round"/>
  <path d="M65 101h51M65 126h36" fill="none" stroke="#16a34a" stroke-width="15" stroke-linecap="round"/>
  <circle cx="130" cy="123" r="24" fill="#dcfce7" stroke="#16a34a" stroke-width="8"/>
  <path d="m119 124 8 8 16-20" fill="none" stroke="#16a34a" stroke-width="8" stroke-linecap="round" stroke-linejoin="round"/>
</svg>
