<svg xmlns="http://www.w3.org/2000/svg" viewBox="0 0 64 64" role="img" aria-label="Group Planner">
  <rect width="64" height="64" rx="16" fill="#f7f4ee"/>
  <path d="M12 18.5c0-4.2 3.3-7.2 7.5-7.2h25.2c4.4 0 7.8 3.1 7.8 7.5v31.1c0 4.2-3.2 7-7.3 7.2H19.5c-4.3-.1-7.5-3.1-7.5-7.4V18.5Z" fill="#fff" stroke="#1a1a1a" stroke-width="3.2" stroke-linejoin="round"/>
  <path d="M12.5 24.5c8.5-.8 31.6-.7 40.1 0" fill="none" stroke="#1a1a1a" stroke-width="2.4" stroke-linecap="round"/>
  <path d="M22 8.5v10.2M43 8.5v10.2" fill="none" stroke="#16a34a" stroke-width="4.2" stroke-linecap="round"/>
  <path d="M23 35.5h18.5M23 44.5h12.5" fill="none" stroke="#16a34a" stroke-width="5.5" stroke-linecap="round"/>
  <circle cx="46" cy="43" r="8.5" fill="#dcfce7" stroke="#16a34a" stroke-width="3"/>
  <path d="m42.2 43.4 3 3.1 5.6-7" fill="none" stroke="#16a34a" stroke-width="2.8" stroke-linecap="round" stroke-linejoin="round"/>
</svg>
